# xmcd
#
# Track frame offsets:
#  150
#  16905
#  25925
#  36255
#  49925
#  61400
#  72790
#  81475
#  92970
#  107527
#  120450
#  138262
#  146837
#  158987
#  171625
#  183035
#  196330
#  209747
#  219550
#  232630
#  247950
#  256712
#  266625
#  276425
#  284700
#  295112
#
# Disc length: 4091 seconds
#
# Revision: 2
# Processed by: cddbd v1.4PL0 Copyright (c) Steve Scherf et al.
# Submitted via: AltoMP3_Maker 3.0
#
DISCID=8c0ff91a
DTITLE=Various Artist - Collection Souvenir Country - Disc 1
DYEAR=1900
DGENRE=
TTITLE0=Des roses rouges
TTITLE1=Pardonner et oublier
TTITLE2=Signe Régis
TTITLE3=Hommage au bucheron
TTITLE4=Rossignol sauvage
TTITLE5=Le train de notre amour
TTITLE6=Pour toujours, je t'aime
TTITLE7=Un mur entre nos coeurs
TTITLE8=Mimi yankee
TTITLE9=Portez-lui ces roses
TTITLE10=Un verre sur la table
TTITLE11=Bonjour Montréal
TTITLE12=J'oublierai le passé
TTITLE13=Appelle-moi
TTITLE14=Mon coeur
TTITLE15=Combien faut-il de larmes
TTITLE16=Ma vie en chanson
TTITLE17=L'enfant do
TTITLE18=J'ai rêvé à mon  père
TTITLE19=Comme tu es belle
TTITLE20=Toi et moi
TTITLE21=Les quatres saisons de ton coeur
TTITLE22=La fête en Acadie
TTITLE23=Six jours sur la route
TTITLE24=Bonjour mes amis
TTITLE25=Porte mon amour à rose
EXTD=
EXTT0=
EXTT1=
EXTT2=
EXTT3=
EXTT4=
EXTT5=
EXTT6=
EXTT7=
EXTT8=
EXTT9=
EXTT10=
EXTT11=
EXTT12=
EXTT13=
EXTT14=
EXTT15=
EXTT16=
EXTT17=
EXTT18=
EXTT19=
EXTT20=
EXTT21=
EXTT22=
EXTT23=
EXTT24=
EXTT25=
PLAYORDER=
